# xmcd
#
# Track frame offsets: 
#        173
#        23443
#        41910
#        61940
#        80500
#        98809
#        118912
#        138451
#        155404
#        171889
#        193803
#        219803
#        238402
#        264131
#        290310
#        309079
#        327275
#        346368
#
# Disc length: 4794 seconds
#
# Revision: 0
# Processed by: cddbd v1.5.2PL0 Copyright (c) Steve Scherf et al.
# Submitted via: ExactAudioCopy v0.99pb5
#
DISCID=fb12b812
DTITLE=Zucchero Sugar Fornaciari - All The Best (1 CD)
DYEAR=2008
DGENRE=Pop
TTITLE0=Wonderful Life
TTITLE1=Tutti i Colori della Mia Vita
TTITLE2=Senza una Donna
TTITLE3=Baila (Sexy Thing)
TTITLE4=Indaco dagli Occhi del Cielo
TTITLE5=Nel Così Blu
TTITLE6=Il Volo
TTITLE7=Bacco Perbacco
TTITLE8=Occhi
TTITLE9=Così Celeste
TTITLE10=Blu
TTITLE11=Diavolo in Me
TTITLE12=Dune Mosse
TTITLE13=Diamante
TTITLE14=Va Pensiero
TTITLE15=Amen
TTITLE16=Miserere
TTITLE17=You Are So Beautiful
EXTD=
EXTT0=
EXTT1=
EXTT2=
EXTT3=
EXTT4=
EXTT5=
EXTT6=
EXTT7=
EXTT8=
EXTT9=
EXTT10=
EXTT11=
EXTT12=
EXTT13=
EXTT14=
EXTT15=
EXTT16=
EXTT17=
PLAYORDER=
